<mxfile host="app.diagrams.net" agent="Mozilla/5.0 (Windows NT 10.0; Win64; x64) AppleWebKit/537.36 (KHTML, like Gecko) Chrome/133.0.0.0 Safari/537.36 OPR/118.0.0.0" version="27.0.4">
  <diagram name="PÃ¡gina-1" id="eAvZhU8WI0IipHoUSHIk">
    <mxGraphModel dx="2539" dy="540" grid="1" gridSize="10" guides="1" tooltips="1" connect="1" arrows="1" fold="1" page="1" pageScale="1" pageWidth="827" pageHeight="1169" math="0" shadow="0">
      <root>
        <mxCell id="0" />
        <mxCell id="1" parent="0" />
        <mxCell id="fNFYi70h5VaRsUZ3e4aZ-111" value="" style="rounded=0;whiteSpace=wrap;html=1;" vertex="1" parent="1">
          <mxGeometry x="1552.5" y="1320" width="70" height="30" as="geometry" />
        </mxCell>
        <mxCell id="fNFYi70h5VaRsUZ3e4aZ-112" value="" style="rounded=0;whiteSpace=wrap;html=1;" vertex="1" parent="1">
          <mxGeometry x="220" y="1288" width="70" height="30" as="geometry" />
        </mxCell>
        <mxCell id="fNFYi70h5VaRsUZ3e4aZ-113" value="" style="rounded=0;whiteSpace=wrap;html=1;" vertex="1" parent="1">
          <mxGeometry x="132.5" y="1030" width="70" height="30" as="geometry" />
        </mxCell>
        <mxCell id="fNFYi70h5VaRsUZ3e4aZ-110" value="" style="rounded=0;whiteSpace=wrap;html=1;" vertex="1" parent="1">
          <mxGeometry x="1552.5" y="1040" width="70" height="30" as="geometry" />
        </mxCell>
        <mxCell id="fNFYi70h5VaRsUZ3e4aZ-99" value="" style="rounded=1;whiteSpace=wrap;html=1;" vertex="1" parent="1">
          <mxGeometry x="1410" y="1060" width="50" height="30" as="geometry" />
        </mxCell>
        <mxCell id="fNFYi70h5VaRsUZ3e4aZ-100" value="" style="rounded=1;whiteSpace=wrap;html=1;" vertex="1" parent="1">
          <mxGeometry x="270" y="1060" width="50" height="30" as="geometry" />
        </mxCell>
        <mxCell id="fNFYi70h5VaRsUZ3e4aZ-101" value="" style="rounded=1;whiteSpace=wrap;html=1;" vertex="1" parent="1">
          <mxGeometry x="1362.5" y="1280" width="50" height="30" as="geometry" />
        </mxCell>
        <mxCell id="fNFYi70h5VaRsUZ3e4aZ-10" value="" style="whiteSpace=wrap;html=1;aspect=fixed;shadow=1;" vertex="1" parent="1">
          <mxGeometry x="740" y="325" width="260" height="260" as="geometry" />
        </mxCell>
        <mxCell id="fNFYi70h5VaRsUZ3e4aZ-7" value="" style="shape=tapeData;whiteSpace=wrap;html=1;perimeter=ellipsePerimeter;shadow=1;" vertex="1" parent="1">
          <mxGeometry x="-480" y="302.5" width="290" height="260" as="geometry" />
        </mxCell>
        <mxCell id="fNFYi70h5VaRsUZ3e4aZ-3" value="" style="shape=mxgraph.cisco.buildings.branch_office;sketch=0;html=1;pointerEvents=1;dashed=0;fillColor=#036897;strokeColor=#ffffff;strokeWidth=2;verticalLabelPosition=bottom;verticalAlign=top;align=center;outlineConnect=0;" vertex="1" parent="1">
          <mxGeometry x="-300" y="395" width="51" height="75" as="geometry" />
        </mxCell>
        <mxCell id="fNFYi70h5VaRsUZ3e4aZ-4" value="" style="shape=mxgraph.cisco.buildings.branch_office;sketch=0;html=1;pointerEvents=1;dashed=0;fillColor=#036897;strokeColor=#ffffff;strokeWidth=2;verticalLabelPosition=bottom;verticalAlign=top;align=center;outlineConnect=0;" vertex="1" parent="1">
          <mxGeometry x="-370" y="320" width="51" height="75" as="geometry" />
        </mxCell>
        <mxCell id="fNFYi70h5VaRsUZ3e4aZ-5" value="" style="shape=mxgraph.cisco.buildings.branch_office;sketch=0;html=1;pointerEvents=1;dashed=0;fillColor=#036897;strokeColor=#ffffff;strokeWidth=2;verticalLabelPosition=bottom;verticalAlign=top;align=center;outlineConnect=0;" vertex="1" parent="1">
          <mxGeometry x="-370" y="470" width="51" height="75" as="geometry" />
        </mxCell>
        <mxCell id="fNFYi70h5VaRsUZ3e4aZ-8" value="" style="shape=mxgraph.cisco.buildings.generic_building;sketch=0;html=1;pointerEvents=1;dashed=0;fillColor=#036897;strokeColor=#ffffff;strokeWidth=2;verticalLabelPosition=bottom;verticalAlign=top;align=center;outlineConnect=0;" vertex="1" parent="1">
          <mxGeometry x="825" y="400" width="90" height="136" as="geometry" />
        </mxCell>
        <mxCell id="fNFYi70h5VaRsUZ3e4aZ-9" value="" style="shape=mxgraph.cisco.buildings.small_business;sketch=0;html=1;pointerEvents=1;dashed=0;fillColor=#036897;strokeColor=#ffffff;strokeWidth=2;verticalLabelPosition=bottom;verticalAlign=top;align=center;outlineConnect=0;" vertex="1" parent="1">
          <mxGeometry x="821" y="491" width="98" height="54" as="geometry" />
        </mxCell>
        <mxCell id="fNFYi70h5VaRsUZ3e4aZ-11" value="" style="image;html=1;image=img/lib/clip_art/networking/Router_Icon_128x128.png" vertex="1" parent="1">
          <mxGeometry x="-356" y="620" width="50" height="60" as="geometry" />
        </mxCell>
        <mxCell id="fNFYi70h5VaRsUZ3e4aZ-13" value="" style="image;html=1;image=img/lib/clip_art/networking/Router_Icon_128x128.png" vertex="1" parent="1">
          <mxGeometry x="847.5" y="620" width="50" height="60" as="geometry" />
        </mxCell>
        <mxCell id="fNFYi70h5VaRsUZ3e4aZ-14" value="" style="image;html=1;image=img/lib/clip_art/networking/Firewall_02_128x128.png" vertex="1" parent="1">
          <mxGeometry x="-360" y="750" width="60" height="50" as="geometry" />
        </mxCell>
        <mxCell id="fNFYi70h5VaRsUZ3e4aZ-15" value="" style="image;html=1;image=img/lib/clip_art/networking/Firewall_02_128x128.png" vertex="1" parent="1">
          <mxGeometry x="847.5" y="1000" width="45" height="60" as="geometry" />
        </mxCell>
        <mxCell id="fNFYi70h5VaRsUZ3e4aZ-16" value="" style="image;html=1;image=img/lib/clip_art/networking/Firewall_02_128x128.png" vertex="1" parent="1">
          <mxGeometry x="840" y="800" width="65" height="50" as="geometry" />
        </mxCell>
        <mxCell id="fNFYi70h5VaRsUZ3e4aZ-18" value="" style="image;html=1;image=img/lib/clip_art/networking/Switch_128x128.png" vertex="1" parent="1">
          <mxGeometry x="1200" y="1370" width="50" height="60" as="geometry" />
        </mxCell>
        <mxCell id="fNFYi70h5VaRsUZ3e4aZ-19" value="" style="image;html=1;image=img/lib/clip_art/networking/Switch_128x128.png" vertex="1" parent="1">
          <mxGeometry x="490" y="1370" width="50" height="60" as="geometry" />
        </mxCell>
        <mxCell id="fNFYi70h5VaRsUZ3e4aZ-20" value="" style="image;html=1;image=img/lib/clip_art/networking/Switch_128x128.png" vertex="1" parent="1">
          <mxGeometry x="-582.5" y="745" width="50" height="60" as="geometry" />
        </mxCell>
        <mxCell id="fNFYi70h5VaRsUZ3e4aZ-21" value="" style="image;html=1;image=img/lib/clip_art/networking/Switch_128x128.png" vertex="1" parent="1">
          <mxGeometry x="-590" y="1090" width="50" height="60" as="geometry" />
        </mxCell>
        <mxCell id="fNFYi70h5VaRsUZ3e4aZ-22" value="" style="image;html=1;image=img/lib/clip_art/networking/Switch_128x128.png" vertex="1" parent="1">
          <mxGeometry x="-590" y="1370" width="50" height="60" as="geometry" />
        </mxCell>
        <mxCell id="fNFYi70h5VaRsUZ3e4aZ-23" value="" style="image;html=1;image=img/lib/clip_art/networking/Switch_128x128.png" vertex="1" parent="1">
          <mxGeometry x="-590" y="1650" width="50" height="60" as="geometry" />
        </mxCell>
        <mxCell id="fNFYi70h5VaRsUZ3e4aZ-24" value="" style="image;html=1;image=img/lib/clip_art/networking/Switch_128x128.png" vertex="1" parent="1">
          <mxGeometry x="-120" y="1650" width="50" height="60" as="geometry" />
        </mxCell>
        <mxCell id="fNFYi70h5VaRsUZ3e4aZ-25" value="" style="image;html=1;image=img/lib/clip_art/networking/Switch_128x128.png" vertex="1" parent="1">
          <mxGeometry x="-120" y="1370" width="50" height="60" as="geometry" />
        </mxCell>
        <mxCell id="fNFYi70h5VaRsUZ3e4aZ-26" value="" style="image;html=1;image=img/lib/clip_art/networking/Switch_128x128.png" vertex="1" parent="1">
          <mxGeometry x="-120" y="1090" width="50" height="60" as="geometry" />
        </mxCell>
        <mxCell id="fNFYi70h5VaRsUZ3e4aZ-27" value="" style="image;html=1;image=img/lib/clip_art/networking/Switch_128x128.png" vertex="1" parent="1">
          <mxGeometry x="845" y="890" width="50" height="60" as="geometry" />
        </mxCell>
        <mxCell id="fNFYi70h5VaRsUZ3e4aZ-28" value="" style="shape=mxgraph.cisco.misc.access_point;sketch=0;html=1;pointerEvents=1;dashed=0;fillColor=#036897;strokeColor=#ffffff;strokeWidth=2;verticalLabelPosition=bottom;verticalAlign=top;align=center;outlineConnect=0;" vertex="1" parent="1">
          <mxGeometry x="1560" y="1146" width="55" height="28" as="geometry" />
        </mxCell>
        <mxCell id="fNFYi70h5VaRsUZ3e4aZ-29" value="" style="shape=mxgraph.cisco.switches.simultilayer_switch;sketch=0;html=1;pointerEvents=1;dashed=0;fillColor=#036897;strokeColor=#ffffff;strokeWidth=2;verticalLabelPosition=bottom;verticalAlign=top;align=center;outlineConnect=0;" vertex="1" parent="1">
          <mxGeometry x="-354" y="1376" width="48" height="48" as="geometry" />
        </mxCell>
        <mxCell id="fNFYi70h5VaRsUZ3e4aZ-32" value="" style="shape=mxgraph.cisco.misc.access_point;sketch=0;html=1;pointerEvents=1;dashed=0;fillColor=#036897;strokeColor=#ffffff;strokeWidth=2;verticalLabelPosition=bottom;verticalAlign=top;align=center;outlineConnect=0;" vertex="1" parent="1">
          <mxGeometry x="-597.5" y="1920" width="65" height="34" as="geometry" />
        </mxCell>
        <mxCell id="fNFYi70h5VaRsUZ3e4aZ-36" value="" style="image;html=1;image=img/lib/clip_art/computers/Server_128x128.png" vertex="1" parent="1">
          <mxGeometry x="-790" y="705" width="50" height="40" as="geometry" />
        </mxCell>
        <mxCell id="fNFYi70h5VaRsUZ3e4aZ-37" value="" style="image;html=1;image=img/lib/clip_art/computers/Server_128x128.png" vertex="1" parent="1">
          <mxGeometry x="-870" y="1440" width="50" height="40" as="geometry" />
        </mxCell>
        <mxCell id="fNFYi70h5VaRsUZ3e4aZ-38" value="" style="image;html=1;image=img/lib/clip_art/computers/Server_128x128.png" vertex="1" parent="1">
          <mxGeometry x="-870" y="1550" width="50" height="40" as="geometry" />
        </mxCell>
        <mxCell id="fNFYi70h5VaRsUZ3e4aZ-39" value="" style="image;html=1;image=img/lib/clip_art/computers/Server_128x128.png" vertex="1" parent="1">
          <mxGeometry x="-870" y="1660" width="50" height="40" as="geometry" />
        </mxCell>
        <mxCell id="fNFYi70h5VaRsUZ3e4aZ-40" value="" style="image;html=1;image=img/lib/clip_art/computers/Server_128x128.png" vertex="1" parent="1">
          <mxGeometry x="-870" y="1780" width="50" height="40" as="geometry" />
        </mxCell>
        <mxCell id="fNFYi70h5VaRsUZ3e4aZ-41" value="" style="image;html=1;image=img/lib/clip_art/computers/Server_128x128.png" vertex="1" parent="1">
          <mxGeometry x="-790" y="820" width="50" height="40" as="geometry" />
        </mxCell>
        <mxCell id="fNFYi70h5VaRsUZ3e4aZ-42" value="" style="fontColor=#0066CC;verticalAlign=top;verticalLabelPosition=bottom;labelPosition=center;align=center;html=1;outlineConnect=0;fillColor=#CCCCCC;strokeColor=#6881B3;gradientColor=none;gradientDirection=north;strokeWidth=2;shape=mxgraph.networks.security_camera;" vertex="1" parent="1">
          <mxGeometry x="-710" y="2060" width="50" height="45" as="geometry" />
        </mxCell>
        <mxCell id="fNFYi70h5VaRsUZ3e4aZ-43" value="" style="fontColor=#0066CC;verticalAlign=top;verticalLabelPosition=bottom;labelPosition=center;align=center;html=1;outlineConnect=0;fillColor=#CCCCCC;strokeColor=#6881B3;gradientColor=none;gradientDirection=north;strokeWidth=2;shape=mxgraph.networks.security_camera;" vertex="1" parent="1">
          <mxGeometry x="-660" y="2160" width="50" height="45" as="geometry" />
        </mxCell>
        <mxCell id="fNFYi70h5VaRsUZ3e4aZ-44" value="" style="fontColor=#0066CC;verticalAlign=top;verticalLabelPosition=bottom;labelPosition=center;align=center;html=1;outlineConnect=0;fillColor=#CCCCCC;strokeColor=#6881B3;gradientColor=none;gradientDirection=north;strokeWidth=2;shape=mxgraph.networks.security_camera;" vertex="1" parent="1">
          <mxGeometry x="-530" y="2160" width="50" height="45" as="geometry" />
        </mxCell>
        <mxCell id="fNFYi70h5VaRsUZ3e4aZ-45" value="" style="fontColor=#0066CC;verticalAlign=top;verticalLabelPosition=bottom;labelPosition=center;align=center;html=1;outlineConnect=0;fillColor=#CCCCCC;strokeColor=#6881B3;gradientColor=none;gradientDirection=north;strokeWidth=2;shape=mxgraph.networks.security_camera;" vertex="1" parent="1">
          <mxGeometry x="-480" y="2060" width="50" height="45" as="geometry" />
        </mxCell>
        <mxCell id="fNFYi70h5VaRsUZ3e4aZ-46" value="" style="shape=mxgraph.cisco.computers_and_peripherals.speaker;html=1;pointerEvents=1;dashed=0;fillColor=#036897;strokeColor=#ffffff;strokeWidth=2;verticalLabelPosition=bottom;verticalAlign=top;align=center;outlineConnect=0;" vertex="1" parent="1">
          <mxGeometry x="-600" y="2090" width="53" height="54" as="geometry" />
        </mxCell>
        <mxCell id="fNFYi70h5VaRsUZ3e4aZ-47" value="" style="shape=image;html=1;verticalAlign=top;verticalLabelPosition=bottom;labelBackgroundColor=#ffffff;imageAspect=0;aspect=fixed;image=https://cdn0.iconfinder.com/data/icons/green-world-colored/80/sun-solar-panel-green-energy-plug-128.png" vertex="1" parent="1">
          <mxGeometry x="-602.5" y="2230" width="58" height="58" as="geometry" />
        </mxCell>
        <mxCell id="fNFYi70h5VaRsUZ3e4aZ-48" value="" style="html=1;verticalLabelPosition=bottom;align=center;labelBackgroundColor=#ffffff;verticalAlign=top;strokeWidth=2;strokeColor=#0080F0;shadow=0;dashed=0;shape=mxgraph.ios7.icons.battery;" vertex="1" parent="1">
          <mxGeometry x="-520" y="2253" width="30" height="12" as="geometry" />
        </mxCell>
        <mxCell id="fNFYi70h5VaRsUZ3e4aZ-49" value="" style="endArrow=none;dashed=1;html=1;dashPattern=1 3;strokeWidth=2;rounded=0;exitX=0.5;exitY=0.985;exitDx=0;exitDy=0;exitPerimeter=0;entryX=0.75;entryY=0;entryDx=0;entryDy=0;entryPerimeter=0;" edge="1" parent="1" source="fNFYi70h5VaRsUZ3e4aZ-32" target="fNFYi70h5VaRsUZ3e4aZ-46">
          <mxGeometry width="50" height="50" relative="1" as="geometry">
            <mxPoint x="-400" y="2030" as="sourcePoint" />
            <mxPoint x="-350" y="1980" as="targetPoint" />
          </mxGeometry>
        </mxCell>
        <mxCell id="fNFYi70h5VaRsUZ3e4aZ-50" value="" style="endArrow=none;dashed=1;html=1;dashPattern=1 3;strokeWidth=2;rounded=0;exitX=0.5;exitY=0.985;exitDx=0;exitDy=0;exitPerimeter=0;entryX=0;entryY=0.5;entryDx=0;entryDy=0;entryPerimeter=0;" edge="1" parent="1" source="fNFYi70h5VaRsUZ3e4aZ-32" target="fNFYi70h5VaRsUZ3e4aZ-45">
          <mxGeometry width="50" height="50" relative="1" as="geometry">
            <mxPoint x="-555" y="1963" as="sourcePoint" />
            <mxPoint x="-550" y="2100" as="targetPoint" />
          </mxGeometry>
        </mxCell>
        <mxCell id="fNFYi70h5VaRsUZ3e4aZ-51" value="" style="endArrow=none;dashed=1;html=1;dashPattern=1 3;strokeWidth=2;rounded=0;exitX=0.88;exitY=0.5;exitDx=0;exitDy=0;exitPerimeter=0;entryX=0.5;entryY=0.985;entryDx=0;entryDy=0;entryPerimeter=0;" edge="1" parent="1" source="fNFYi70h5VaRsUZ3e4aZ-42" target="fNFYi70h5VaRsUZ3e4aZ-32">
          <mxGeometry width="50" height="50" relative="1" as="geometry">
            <mxPoint x="-400" y="2030" as="sourcePoint" />
            <mxPoint x="-350" y="1980" as="targetPoint" />
          </mxGeometry>
        </mxCell>
        <mxCell id="fNFYi70h5VaRsUZ3e4aZ-52" value="" style="endArrow=none;dashed=1;html=1;dashPattern=1 3;strokeWidth=2;rounded=0;exitX=0.3;exitY=0;exitDx=0;exitDy=0;exitPerimeter=0;entryX=0.92;entryY=0.8;entryDx=0;entryDy=0;entryPerimeter=0;" edge="1" parent="1" source="fNFYi70h5VaRsUZ3e4aZ-44" target="fNFYi70h5VaRsUZ3e4aZ-32">
          <mxGeometry width="50" height="50" relative="1" as="geometry">
            <mxPoint x="-400" y="2030" as="sourcePoint" />
            <mxPoint x="-350" y="1980" as="targetPoint" />
          </mxGeometry>
        </mxCell>
        <mxCell id="fNFYi70h5VaRsUZ3e4aZ-53" value="" style="endArrow=none;dashed=1;html=1;dashPattern=1 3;strokeWidth=2;rounded=0;exitX=0.3;exitY=0;exitDx=0;exitDy=0;exitPerimeter=0;entryX=0;entryY=0.985;entryDx=0;entryDy=0;entryPerimeter=0;" edge="1" parent="1" source="fNFYi70h5VaRsUZ3e4aZ-43" target="fNFYi70h5VaRsUZ3e4aZ-32">
          <mxGeometry width="50" height="50" relative="1" as="geometry">
            <mxPoint x="-400" y="2030" as="sourcePoint" />
            <mxPoint x="-350" y="1980" as="targetPoint" />
          </mxGeometry>
        </mxCell>
        <mxCell id="fNFYi70h5VaRsUZ3e4aZ-55" value="" style="endArrow=none;html=1;rounded=0;exitX=1;exitY=0.5;exitDx=0;exitDy=0;" edge="1" parent="1" source="fNFYi70h5VaRsUZ3e4aZ-47">
          <mxGeometry width="50" height="50" relative="1" as="geometry">
            <mxPoint x="-400" y="2030" as="sourcePoint" />
            <mxPoint x="-522" y="2256" as="targetPoint" />
          </mxGeometry>
        </mxCell>
        <mxCell id="fNFYi70h5VaRsUZ3e4aZ-56" value="" style="endArrow=none;html=1;rounded=0;exitX=0.5;exitY=0;exitDx=0;exitDy=0;exitPerimeter=0;entryX=0.5;entryY=1;entryDx=0;entryDy=0;" edge="1" parent="1" source="fNFYi70h5VaRsUZ3e4aZ-32" target="fNFYi70h5VaRsUZ3e4aZ-23">
          <mxGeometry width="50" height="50" relative="1" as="geometry">
            <mxPoint x="-400" y="2030" as="sourcePoint" />
            <mxPoint x="-350" y="1980" as="targetPoint" />
          </mxGeometry>
        </mxCell>
        <mxCell id="fNFYi70h5VaRsUZ3e4aZ-57" value="" style="endArrow=none;html=1;rounded=0;exitX=0.5;exitY=0;exitDx=0;exitDy=0;entryX=0.5;entryY=1;entryDx=0;entryDy=0;" edge="1" parent="1" source="fNFYi70h5VaRsUZ3e4aZ-23" target="fNFYi70h5VaRsUZ3e4aZ-22">
          <mxGeometry width="50" height="50" relative="1" as="geometry">
            <mxPoint x="-400" y="1760" as="sourcePoint" />
            <mxPoint x="-350" y="1710" as="targetPoint" />
          </mxGeometry>
        </mxCell>
        <mxCell id="fNFYi70h5VaRsUZ3e4aZ-58" value="" style="endArrow=none;html=1;rounded=0;exitX=1;exitY=0.5;exitDx=0;exitDy=0;entryX=0;entryY=0.5;entryDx=0;entryDy=0;" edge="1" parent="1" source="fNFYi70h5VaRsUZ3e4aZ-23" target="fNFYi70h5VaRsUZ3e4aZ-24">
          <mxGeometry width="50" height="50" relative="1" as="geometry">
            <mxPoint x="-400" y="1760" as="sourcePoint" />
            <mxPoint x="-350" y="1710" as="targetPoint" />
          </mxGeometry>
        </mxCell>
        <mxCell id="fNFYi70h5VaRsUZ3e4aZ-59" value="" style="endArrow=none;html=1;rounded=0;exitX=0.5;exitY=0;exitDx=0;exitDy=0;entryX=0.5;entryY=1;entryDx=0;entryDy=0;" edge="1" parent="1" source="fNFYi70h5VaRsUZ3e4aZ-22" target="fNFYi70h5VaRsUZ3e4aZ-21">
          <mxGeometry width="50" height="50" relative="1" as="geometry">
            <mxPoint x="-400" y="1760" as="sourcePoint" />
            <mxPoint x="-350" y="1710" as="targetPoint" />
          </mxGeometry>
        </mxCell>
        <mxCell id="fNFYi70h5VaRsUZ3e4aZ-60" value="" style="endArrow=none;html=1;rounded=0;exitX=1;exitY=0.5;exitDx=0;exitDy=0;entryX=0;entryY=0.5;entryDx=0;entryDy=0;" edge="1" parent="1" source="fNFYi70h5VaRsUZ3e4aZ-21" target="fNFYi70h5VaRsUZ3e4aZ-26">
          <mxGeometry width="50" height="50" relative="1" as="geometry">
            <mxPoint x="-400" y="1450" as="sourcePoint" />
            <mxPoint x="-350" y="1400" as="targetPoint" />
          </mxGeometry>
        </mxCell>
        <mxCell id="fNFYi70h5VaRsUZ3e4aZ-61" value="" style="endArrow=none;html=1;rounded=0;exitX=0;exitY=0.5;exitDx=0;exitDy=0;entryX=1;entryY=0.5;entryDx=0;entryDy=0;entryPerimeter=0;" edge="1" parent="1" source="fNFYi70h5VaRsUZ3e4aZ-25" target="fNFYi70h5VaRsUZ3e4aZ-29">
          <mxGeometry width="50" height="50" relative="1" as="geometry">
            <mxPoint x="-400" y="1450" as="sourcePoint" />
            <mxPoint x="-350" y="1400" as="targetPoint" />
          </mxGeometry>
        </mxCell>
        <mxCell id="fNFYi70h5VaRsUZ3e4aZ-62" value="" style="endArrow=none;html=1;rounded=0;entryX=0.5;entryY=1;entryDx=0;entryDy=0;exitX=0.5;exitY=0;exitDx=0;exitDy=0;" edge="1" parent="1" source="fNFYi70h5VaRsUZ3e4aZ-25" target="fNFYi70h5VaRsUZ3e4aZ-26">
          <mxGeometry width="50" height="50" relative="1" as="geometry">
            <mxPoint x="-400" y="1450" as="sourcePoint" />
            <mxPoint x="-350" y="1400" as="targetPoint" />
          </mxGeometry>
        </mxCell>
        <mxCell id="fNFYi70h5VaRsUZ3e4aZ-63" value="" style="endArrow=none;html=1;rounded=0;exitX=0.5;exitY=0;exitDx=0;exitDy=0;entryX=0.5;entryY=1;entryDx=0;entryDy=0;" edge="1" parent="1" source="fNFYi70h5VaRsUZ3e4aZ-24" target="fNFYi70h5VaRsUZ3e4aZ-25">
          <mxGeometry width="50" height="50" relative="1" as="geometry">
            <mxPoint x="-400" y="1450" as="sourcePoint" />
            <mxPoint x="-350" y="1400" as="targetPoint" />
          </mxGeometry>
        </mxCell>
        <mxCell id="fNFYi70h5VaRsUZ3e4aZ-64" value="" style="endArrow=none;html=1;rounded=0;entryX=1;entryY=1;entryDx=0;entryDy=0;exitX=0.09;exitY=0.08;exitDx=0;exitDy=0;exitPerimeter=0;" edge="1" parent="1" source="fNFYi70h5VaRsUZ3e4aZ-29" target="fNFYi70h5VaRsUZ3e4aZ-21">
          <mxGeometry width="50" height="50" relative="1" as="geometry">
            <mxPoint x="-400" y="1450" as="sourcePoint" />
            <mxPoint x="-350" y="1400" as="targetPoint" />
          </mxGeometry>
        </mxCell>
        <mxCell id="fNFYi70h5VaRsUZ3e4aZ-65" value="" style="endArrow=none;html=1;rounded=0;entryX=0.01;entryY=1;entryDx=0;entryDy=0;entryPerimeter=0;exitX=1;exitY=0;exitDx=0;exitDy=0;" edge="1" parent="1" source="fNFYi70h5VaRsUZ3e4aZ-23" target="fNFYi70h5VaRsUZ3e4aZ-29">
          <mxGeometry width="50" height="50" relative="1" as="geometry">
            <mxPoint x="-400" y="1450" as="sourcePoint" />
            <mxPoint x="-350" y="1400" as="targetPoint" />
          </mxGeometry>
        </mxCell>
        <mxCell id="fNFYi70h5VaRsUZ3e4aZ-66" value="" style="endArrow=none;html=1;rounded=0;exitX=0.5;exitY=0;exitDx=0;exitDy=0;exitPerimeter=0;entryX=0.5;entryY=1;entryDx=0;entryDy=0;" edge="1" parent="1" source="fNFYi70h5VaRsUZ3e4aZ-29" target="fNFYi70h5VaRsUZ3e4aZ-14">
          <mxGeometry width="50" height="50" relative="1" as="geometry">
            <mxPoint x="-400" y="920" as="sourcePoint" />
            <mxPoint x="-350" y="870" as="targetPoint" />
          </mxGeometry>
        </mxCell>
        <mxCell id="fNFYi70h5VaRsUZ3e4aZ-67" value="" style="endArrow=none;html=1;rounded=0;entryX=0;entryY=0.5;entryDx=0;entryDy=0;exitX=1;exitY=0.5;exitDx=0;exitDy=0;" edge="1" parent="1" source="fNFYi70h5VaRsUZ3e4aZ-20" target="fNFYi70h5VaRsUZ3e4aZ-14">
          <mxGeometry width="50" height="50" relative="1" as="geometry">
            <mxPoint x="-400" y="920" as="sourcePoint" />
            <mxPoint x="-350" y="870" as="targetPoint" />
          </mxGeometry>
        </mxCell>
        <mxCell id="fNFYi70h5VaRsUZ3e4aZ-68" value="" style="endArrow=none;html=1;rounded=0;exitX=1;exitY=0.5;exitDx=0;exitDy=0;entryX=0;entryY=0.75;entryDx=0;entryDy=0;" edge="1" parent="1" source="fNFYi70h5VaRsUZ3e4aZ-41" target="fNFYi70h5VaRsUZ3e4aZ-20">
          <mxGeometry width="50" height="50" relative="1" as="geometry">
            <mxPoint x="-400" y="920" as="sourcePoint" />
            <mxPoint x="-350" y="870" as="targetPoint" />
          </mxGeometry>
        </mxCell>
        <mxCell id="fNFYi70h5VaRsUZ3e4aZ-69" value="" style="endArrow=none;html=1;rounded=0;entryX=0;entryY=0.25;entryDx=0;entryDy=0;exitX=1;exitY=0.5;exitDx=0;exitDy=0;" edge="1" parent="1" source="fNFYi70h5VaRsUZ3e4aZ-36" target="fNFYi70h5VaRsUZ3e4aZ-20">
          <mxGeometry width="50" height="50" relative="1" as="geometry">
            <mxPoint x="-400" y="920" as="sourcePoint" />
            <mxPoint x="-350" y="870" as="targetPoint" />
          </mxGeometry>
        </mxCell>
        <mxCell id="fNFYi70h5VaRsUZ3e4aZ-70" value="" style="endArrow=none;html=1;rounded=0;entryX=0.5;entryY=0;entryDx=0;entryDy=0;exitX=0.5;exitY=1;exitDx=0;exitDy=0;" edge="1" parent="1" source="fNFYi70h5VaRsUZ3e4aZ-11" target="fNFYi70h5VaRsUZ3e4aZ-14">
          <mxGeometry width="50" height="50" relative="1" as="geometry">
            <mxPoint x="-400" y="920" as="sourcePoint" />
            <mxPoint x="-350" y="870" as="targetPoint" />
          </mxGeometry>
        </mxCell>
        <mxCell id="fNFYi70h5VaRsUZ3e4aZ-71" value="" style="curved=1;endArrow=classic;html=1;rounded=0;entryX=0;entryY=0.5;entryDx=0;entryDy=0;exitX=1;exitY=0.5;exitDx=0;exitDy=0;" edge="1" parent="1" source="fNFYi70h5VaRsUZ3e4aZ-11" target="fNFYi70h5VaRsUZ3e4aZ-13">
          <mxGeometry width="50" height="50" relative="1" as="geometry">
            <mxPoint x="-400" y="780" as="sourcePoint" />
            <mxPoint x="-350" y="730" as="targetPoint" />
            <Array as="points">
              <mxPoint x="330" y="770" />
              <mxPoint x="240" y="450" />
            </Array>
          </mxGeometry>
        </mxCell>
        <mxCell id="fNFYi70h5VaRsUZ3e4aZ-72" value="" style="endArrow=none;html=1;rounded=0;entryX=0.5;entryY=0;entryDx=0;entryDy=0;exitX=0.5;exitY=1;exitDx=0;exitDy=0;" edge="1" parent="1" source="fNFYi70h5VaRsUZ3e4aZ-13" target="fNFYi70h5VaRsUZ3e4aZ-16">
          <mxGeometry width="50" height="50" relative="1" as="geometry">
            <mxPoint x="270" y="830" as="sourcePoint" />
            <mxPoint x="320" y="780" as="targetPoint" />
          </mxGeometry>
        </mxCell>
        <mxCell id="fNFYi70h5VaRsUZ3e4aZ-73" value="" style="endArrow=none;html=1;rounded=0;entryX=0.5;entryY=1;entryDx=0;entryDy=0;exitX=0.5;exitY=0;exitDx=0;exitDy=0;" edge="1" parent="1" source="fNFYi70h5VaRsUZ3e4aZ-27" target="fNFYi70h5VaRsUZ3e4aZ-16">
          <mxGeometry width="50" height="50" relative="1" as="geometry">
            <mxPoint x="270" y="830" as="sourcePoint" />
            <mxPoint x="320" y="780" as="targetPoint" />
          </mxGeometry>
        </mxCell>
        <mxCell id="fNFYi70h5VaRsUZ3e4aZ-74" value="" style="endArrow=none;html=1;rounded=0;entryX=0.5;entryY=1;entryDx=0;entryDy=0;exitX=0.5;exitY=0;exitDx=0;exitDy=0;" edge="1" parent="1" source="fNFYi70h5VaRsUZ3e4aZ-15" target="fNFYi70h5VaRsUZ3e4aZ-27">
          <mxGeometry width="50" height="50" relative="1" as="geometry">
            <mxPoint x="270" y="960" as="sourcePoint" />
            <mxPoint x="320" y="910" as="targetPoint" />
          </mxGeometry>
        </mxCell>
        <mxCell id="fNFYi70h5VaRsUZ3e4aZ-75" value="" style="endArrow=none;html=1;rounded=0;exitX=0;exitY=1;exitDx=0;exitDy=0;entryX=1;entryY=0.5;entryDx=0;entryDy=0;" edge="1" parent="1" source="fNFYi70h5VaRsUZ3e4aZ-23" target="fNFYi70h5VaRsUZ3e4aZ-40">
          <mxGeometry width="50" height="50" relative="1" as="geometry">
            <mxPoint x="20" y="1740" as="sourcePoint" />
            <mxPoint x="70" y="1690" as="targetPoint" />
          </mxGeometry>
        </mxCell>
        <mxCell id="fNFYi70h5VaRsUZ3e4aZ-76" value="" style="endArrow=none;html=1;rounded=0;exitX=1;exitY=0.5;exitDx=0;exitDy=0;entryX=0;entryY=0.75;entryDx=0;entryDy=0;" edge="1" parent="1" source="fNFYi70h5VaRsUZ3e4aZ-39" target="fNFYi70h5VaRsUZ3e4aZ-23">
          <mxGeometry width="50" height="50" relative="1" as="geometry">
            <mxPoint x="-190" y="1720" as="sourcePoint" />
            <mxPoint x="-140" y="1670" as="targetPoint" />
          </mxGeometry>
        </mxCell>
        <mxCell id="fNFYi70h5VaRsUZ3e4aZ-77" value="" style="endArrow=none;html=1;rounded=0;exitX=0;exitY=0.25;exitDx=0;exitDy=0;entryX=1;entryY=0.5;entryDx=0;entryDy=0;" edge="1" parent="1" source="fNFYi70h5VaRsUZ3e4aZ-23" target="fNFYi70h5VaRsUZ3e4aZ-38">
          <mxGeometry width="50" height="50" relative="1" as="geometry">
            <mxPoint x="-190" y="1720" as="sourcePoint" />
            <mxPoint x="-140" y="1670" as="targetPoint" />
          </mxGeometry>
        </mxCell>
        <mxCell id="fNFYi70h5VaRsUZ3e4aZ-78" value="" style="endArrow=none;html=1;rounded=0;exitX=0;exitY=0;exitDx=0;exitDy=0;entryX=1;entryY=0.5;entryDx=0;entryDy=0;" edge="1" parent="1" source="fNFYi70h5VaRsUZ3e4aZ-23" target="fNFYi70h5VaRsUZ3e4aZ-37">
          <mxGeometry width="50" height="50" relative="1" as="geometry">
            <mxPoint x="-190" y="1720" as="sourcePoint" />
            <mxPoint x="-140" y="1670" as="targetPoint" />
          </mxGeometry>
        </mxCell>
        <mxCell id="fNFYi70h5VaRsUZ3e4aZ-79" value="" style="image;html=1;image=img/lib/clip_art/computers/Server_128x128.png" vertex="1" parent="1">
          <mxGeometry x="1060" y="850" width="50" height="40" as="geometry" />
        </mxCell>
        <mxCell id="fNFYi70h5VaRsUZ3e4aZ-80" value="" style="image;html=1;image=img/lib/clip_art/computers/Server_128x128.png" vertex="1" parent="1">
          <mxGeometry x="1060" y="960" width="50" height="40" as="geometry" />
        </mxCell>
        <mxCell id="fNFYi70h5VaRsUZ3e4aZ-81" value="" style="endArrow=none;html=1;rounded=0;entryX=1;entryY=0.25;entryDx=0;entryDy=0;exitX=0;exitY=0.5;exitDx=0;exitDy=0;" edge="1" parent="1" source="fNFYi70h5VaRsUZ3e4aZ-79" target="fNFYi70h5VaRsUZ3e4aZ-27">
          <mxGeometry width="50" height="50" relative="1" as="geometry">
            <mxPoint x="480" y="890" as="sourcePoint" />
            <mxPoint x="530" y="840" as="targetPoint" />
          </mxGeometry>
        </mxCell>
        <mxCell id="fNFYi70h5VaRsUZ3e4aZ-82" value="" style="endArrow=none;html=1;rounded=0;entryX=1;entryY=0.75;entryDx=0;entryDy=0;exitX=0;exitY=0.5;exitDx=0;exitDy=0;" edge="1" parent="1" source="fNFYi70h5VaRsUZ3e4aZ-80" target="fNFYi70h5VaRsUZ3e4aZ-27">
          <mxGeometry width="50" height="50" relative="1" as="geometry">
            <mxPoint x="480" y="890" as="sourcePoint" />
            <mxPoint x="530" y="840" as="targetPoint" />
          </mxGeometry>
        </mxCell>
        <mxCell id="fNFYi70h5VaRsUZ3e4aZ-83" value="" style="shape=mxgraph.cisco.switches.simultilayer_switch;sketch=0;html=1;pointerEvents=1;dashed=0;fillColor=#036897;strokeColor=#ffffff;strokeWidth=2;verticalLabelPosition=bottom;verticalAlign=top;align=center;outlineConnect=0;" vertex="1" parent="1">
          <mxGeometry x="848.5" y="1376" width="48" height="48" as="geometry" />
        </mxCell>
        <mxCell id="fNFYi70h5VaRsUZ3e4aZ-84" value="" style="endArrow=none;html=1;rounded=0;entryX=0.5;entryY=0;entryDx=0;entryDy=0;entryPerimeter=0;exitX=0.5;exitY=1;exitDx=0;exitDy=0;" edge="1" parent="1" source="fNFYi70h5VaRsUZ3e4aZ-15" target="fNFYi70h5VaRsUZ3e4aZ-83">
          <mxGeometry width="50" height="50" relative="1" as="geometry">
            <mxPoint x="480" y="1680" as="sourcePoint" />
            <mxPoint x="530" y="1630" as="targetPoint" />
          </mxGeometry>
        </mxCell>
        <mxCell id="fNFYi70h5VaRsUZ3e4aZ-85" value="" style="image;html=1;image=img/lib/clip_art/networking/Switch_128x128.png" vertex="1" parent="1">
          <mxGeometry x="270" y="1130" width="50" height="60" as="geometry" />
        </mxCell>
        <mxCell id="fNFYi70h5VaRsUZ3e4aZ-86" value="" style="image;html=1;image=img/lib/clip_art/networking/Switch_128x128.png" vertex="1" parent="1">
          <mxGeometry x="1410" y="1130" width="50" height="60" as="geometry" />
        </mxCell>
        <mxCell id="fNFYi70h5VaRsUZ3e4aZ-87" value="" style="image;html=1;image=img/lib/clip_art/networking/Switch_128x128.png" vertex="1" parent="1">
          <mxGeometry x="845" y="1560" width="50" height="60" as="geometry" />
        </mxCell>
        <mxCell id="fNFYi70h5VaRsUZ3e4aZ-89" value="" style="rounded=1;whiteSpace=wrap;html=1;" vertex="1" parent="1">
          <mxGeometry x="490" y="1280" width="50" height="30" as="geometry" />
        </mxCell>
        <mxCell id="fNFYi70h5VaRsUZ3e4aZ-90" value="&lt;font style=&quot;font-size: 10px;&quot;&gt;Automatic door&lt;/font&gt;&lt;div&gt;&lt;br&gt;&lt;/div&gt;" style="text;html=1;align=center;verticalAlign=middle;whiteSpace=wrap;rounded=0;" vertex="1" parent="1">
          <mxGeometry x="490" y="1296" width="50" height="14" as="geometry" />
        </mxCell>
        <mxCell id="fNFYi70h5VaRsUZ3e4aZ-92" value="&lt;font style=&quot;font-size: 10px;&quot;&gt;Automatic door&lt;/font&gt;&lt;div&gt;&lt;br&gt;&lt;/div&gt;" style="text;html=1;align=center;verticalAlign=middle;whiteSpace=wrap;rounded=0;" vertex="1" parent="1">
          <mxGeometry x="1410" y="1076" width="50" height="14" as="geometry" />
        </mxCell>
        <mxCell id="fNFYi70h5VaRsUZ3e4aZ-93" value="&lt;font style=&quot;font-size: 10px;&quot;&gt;Automatic door&lt;/font&gt;&lt;div&gt;&lt;br&gt;&lt;/div&gt;" style="text;html=1;align=center;verticalAlign=middle;whiteSpace=wrap;rounded=0;" vertex="1" parent="1">
          <mxGeometry x="1362.5" y="1296" width="50" height="14" as="geometry" />
        </mxCell>
        <mxCell id="fNFYi70h5VaRsUZ3e4aZ-94" value="&lt;font style=&quot;font-size: 10px;&quot;&gt;Automatic door&lt;/font&gt;&lt;div&gt;&lt;br&gt;&lt;/div&gt;" style="text;html=1;align=center;verticalAlign=middle;whiteSpace=wrap;rounded=0;" vertex="1" parent="1">
          <mxGeometry x="270" y="1076" width="50" height="14" as="geometry" />
        </mxCell>
        <mxCell id="fNFYi70h5VaRsUZ3e4aZ-102" value="" style="shape=mxgraph.cisco.misc.access_point;sketch=0;html=1;pointerEvents=1;dashed=0;fillColor=#036897;strokeColor=#ffffff;strokeWidth=2;verticalLabelPosition=bottom;verticalAlign=top;align=center;outlineConnect=0;" vertex="1" parent="1">
          <mxGeometry x="1360" y="1386" width="55" height="28" as="geometry" />
        </mxCell>
        <mxCell id="fNFYi70h5VaRsUZ3e4aZ-103" value="" style="shape=mxgraph.cisco.misc.access_point;sketch=0;html=1;pointerEvents=1;dashed=0;fillColor=#036897;strokeColor=#ffffff;strokeWidth=2;verticalLabelPosition=bottom;verticalAlign=top;align=center;outlineConnect=0;" vertex="1" parent="1">
          <mxGeometry x="330" y="1386" width="55" height="28" as="geometry" />
        </mxCell>
        <mxCell id="fNFYi70h5VaRsUZ3e4aZ-104" value="" style="shape=mxgraph.cisco.misc.access_point;sketch=0;html=1;pointerEvents=1;dashed=0;fillColor=#036897;strokeColor=#ffffff;strokeWidth=2;verticalLabelPosition=bottom;verticalAlign=top;align=center;outlineConnect=0;" vertex="1" parent="1">
          <mxGeometry x="140" y="1146" width="55" height="28" as="geometry" />
        </mxCell>
        <mxCell id="fNFYi70h5VaRsUZ3e4aZ-105" value="&lt;font style=&quot;font-size: 10px;&quot;&gt;Fire Monitor&lt;/font&gt;" style="text;html=1;align=center;verticalAlign=middle;whiteSpace=wrap;rounded=0;" vertex="1" parent="1">
          <mxGeometry x="225" y="1288" width="60" height="30" as="geometry" />
        </mxCell>
        <mxCell id="fNFYi70h5VaRsUZ3e4aZ-106" value="&lt;font style=&quot;font-size: 10px;&quot;&gt;Fire Monitor&lt;/font&gt;" style="text;html=1;align=center;verticalAlign=middle;whiteSpace=wrap;rounded=0;" vertex="1" parent="1">
          <mxGeometry x="1557.5" y="1040" width="60" height="30" as="geometry" />
        </mxCell>
        <mxCell id="fNFYi70h5VaRsUZ3e4aZ-107" value="&lt;font style=&quot;font-size: 10px;&quot;&gt;Fire Monitor&lt;/font&gt;" style="text;html=1;align=center;verticalAlign=middle;whiteSpace=wrap;rounded=0;" vertex="1" parent="1">
          <mxGeometry x="135" y="1030" width="60" height="30" as="geometry" />
        </mxCell>
        <mxCell id="fNFYi70h5VaRsUZ3e4aZ-108" value="&lt;font style=&quot;font-size: 10px;&quot;&gt;Fire Monitor&lt;/font&gt;" style="text;html=1;align=center;verticalAlign=middle;whiteSpace=wrap;rounded=0;" vertex="1" parent="1">
          <mxGeometry x="1557.5" y="1320" width="60" height="30" as="geometry" />
        </mxCell>
        <mxCell id="fNFYi70h5VaRsUZ3e4aZ-114" value="" style="endArrow=none;dashed=1;html=1;dashPattern=1 3;strokeWidth=2;rounded=0;exitX=0.5;exitY=0;exitDx=0;exitDy=0;exitPerimeter=0;entryX=0.5;entryY=1;entryDx=0;entryDy=0;" edge="1" parent="1" source="fNFYi70h5VaRsUZ3e4aZ-103" target="fNFYi70h5VaRsUZ3e4aZ-90">
          <mxGeometry width="50" height="50" relative="1" as="geometry">
            <mxPoint x="700" y="1380" as="sourcePoint" />
            <mxPoint x="750" y="1330" as="targetPoint" />
          </mxGeometry>
        </mxCell>
        <mxCell id="fNFYi70h5VaRsUZ3e4aZ-115" value="" style="endArrow=none;dashed=1;html=1;rounded=0;exitX=0.5;exitY=1;exitDx=0;exitDy=0;entryX=0.5;entryY=0;entryDx=0;entryDy=0;entryPerimeter=0;" edge="1" parent="1" source="fNFYi70h5VaRsUZ3e4aZ-93" target="fNFYi70h5VaRsUZ3e4aZ-102">
          <mxGeometry width="50" height="50" relative="1" as="geometry">
            <mxPoint x="700" y="1380" as="sourcePoint" />
            <mxPoint x="750" y="1330" as="targetPoint" />
          </mxGeometry>
        </mxCell>
        <mxCell id="fNFYi70h5VaRsUZ3e4aZ-116" value="" style="endArrow=none;dashed=1;html=1;dashPattern=1 3;strokeWidth=2;rounded=0;exitX=0.5;exitY=0;exitDx=0;exitDy=0;exitPerimeter=0;entryX=0.5;entryY=1;entryDx=0;entryDy=0;" edge="1" parent="1" source="fNFYi70h5VaRsUZ3e4aZ-104" target="fNFYi70h5VaRsUZ3e4aZ-94">
          <mxGeometry width="50" height="50" relative="1" as="geometry">
            <mxPoint x="700" y="1380" as="sourcePoint" />
            <mxPoint x="750" y="1330" as="targetPoint" />
          </mxGeometry>
        </mxCell>
        <mxCell id="fNFYi70h5VaRsUZ3e4aZ-117" value="" style="endArrow=none;dashed=1;html=1;dashPattern=1 3;strokeWidth=2;rounded=0;exitX=0.5;exitY=0;exitDx=0;exitDy=0;exitPerimeter=0;entryX=0.5;entryY=1;entryDx=0;entryDy=0;" edge="1" parent="1" source="fNFYi70h5VaRsUZ3e4aZ-28" target="fNFYi70h5VaRsUZ3e4aZ-92">
          <mxGeometry width="50" height="50" relative="1" as="geometry">
            <mxPoint x="700" y="1380" as="sourcePoint" />
            <mxPoint x="750" y="1330" as="targetPoint" />
          </mxGeometry>
        </mxCell>
        <mxCell id="fNFYi70h5VaRsUZ3e4aZ-118" value="" style="endArrow=none;html=1;rounded=0;exitX=0;exitY=0.5;exitDx=0;exitDy=0;entryX=1;entryY=0.5;entryDx=0;entryDy=0;entryPerimeter=0;" edge="1" parent="1" source="fNFYi70h5VaRsUZ3e4aZ-19" target="fNFYi70h5VaRsUZ3e4aZ-103">
          <mxGeometry width="50" height="50" relative="1" as="geometry">
            <mxPoint x="700" y="1510" as="sourcePoint" />
            <mxPoint x="750" y="1460" as="targetPoint" />
          </mxGeometry>
        </mxCell>
        <mxCell id="fNFYi70h5VaRsUZ3e4aZ-119" value="" style="endArrow=none;html=1;rounded=0;exitX=1;exitY=0.5;exitDx=0;exitDy=0;entryX=0.01;entryY=0.5;entryDx=0;entryDy=0;entryPerimeter=0;" edge="1" parent="1" source="fNFYi70h5VaRsUZ3e4aZ-19" target="fNFYi70h5VaRsUZ3e4aZ-83">
          <mxGeometry width="50" height="50" relative="1" as="geometry">
            <mxPoint x="700" y="1510" as="sourcePoint" />
            <mxPoint x="750" y="1460" as="targetPoint" />
          </mxGeometry>
        </mxCell>
        <mxCell id="fNFYi70h5VaRsUZ3e4aZ-120" value="" style="endArrow=none;html=1;rounded=0;entryX=0.5;entryY=1;entryDx=0;entryDy=0;entryPerimeter=0;exitX=0.5;exitY=0;exitDx=0;exitDy=0;" edge="1" parent="1" source="fNFYi70h5VaRsUZ3e4aZ-87" target="fNFYi70h5VaRsUZ3e4aZ-83">
          <mxGeometry width="50" height="50" relative="1" as="geometry">
            <mxPoint x="700" y="1510" as="sourcePoint" />
            <mxPoint x="750" y="1460" as="targetPoint" />
          </mxGeometry>
        </mxCell>
        <mxCell id="fNFYi70h5VaRsUZ3e4aZ-121" value="" style="endArrow=none;html=1;rounded=0;entryX=1;entryY=0.5;entryDx=0;entryDy=0;entryPerimeter=0;exitX=0;exitY=0.5;exitDx=0;exitDy=0;" edge="1" parent="1" source="fNFYi70h5VaRsUZ3e4aZ-18" target="fNFYi70h5VaRsUZ3e4aZ-83">
          <mxGeometry width="50" height="50" relative="1" as="geometry">
            <mxPoint x="700" y="1510" as="sourcePoint" />
            <mxPoint x="750" y="1460" as="targetPoint" />
          </mxGeometry>
        </mxCell>
        <mxCell id="fNFYi70h5VaRsUZ3e4aZ-122" value="" style="endArrow=none;html=1;rounded=0;entryX=0;entryY=0.5;entryDx=0;entryDy=0;entryPerimeter=0;exitX=1;exitY=0.5;exitDx=0;exitDy=0;" edge="1" parent="1" source="fNFYi70h5VaRsUZ3e4aZ-18" target="fNFYi70h5VaRsUZ3e4aZ-102">
          <mxGeometry width="50" height="50" relative="1" as="geometry">
            <mxPoint x="700" y="1510" as="sourcePoint" />
            <mxPoint x="750" y="1460" as="targetPoint" />
          </mxGeometry>
        </mxCell>
        <mxCell id="fNFYi70h5VaRsUZ3e4aZ-123" value="" style="endArrow=none;html=1;rounded=0;entryX=0;entryY=0.75;entryDx=0;entryDy=0;exitX=1;exitY=0;exitDx=0;exitDy=0;exitPerimeter=0;" edge="1" parent="1" source="fNFYi70h5VaRsUZ3e4aZ-83" target="fNFYi70h5VaRsUZ3e4aZ-86">
          <mxGeometry width="50" height="50" relative="1" as="geometry">
            <mxPoint x="700" y="1510" as="sourcePoint" />
            <mxPoint x="750" y="1460" as="targetPoint" />
          </mxGeometry>
        </mxCell>
        <mxCell id="fNFYi70h5VaRsUZ3e4aZ-124" value="" style="endArrow=none;html=1;rounded=0;entryX=0.09;entryY=0.08;entryDx=0;entryDy=0;entryPerimeter=0;exitX=1;exitY=0.5;exitDx=0;exitDy=0;" edge="1" parent="1" source="fNFYi70h5VaRsUZ3e4aZ-85" target="fNFYi70h5VaRsUZ3e4aZ-83">
          <mxGeometry width="50" height="50" relative="1" as="geometry">
            <mxPoint x="700" y="1510" as="sourcePoint" />
            <mxPoint x="750" y="1460" as="targetPoint" />
          </mxGeometry>
        </mxCell>
        <mxCell id="fNFYi70h5VaRsUZ3e4aZ-125" value="" style="endArrow=none;html=1;rounded=0;exitX=0;exitY=0.5;exitDx=0;exitDy=0;entryX=1;entryY=0.5;entryDx=0;entryDy=0;entryPerimeter=0;" edge="1" parent="1" source="fNFYi70h5VaRsUZ3e4aZ-85" target="fNFYi70h5VaRsUZ3e4aZ-104">
          <mxGeometry width="50" height="50" relative="1" as="geometry">
            <mxPoint x="700" y="1080" as="sourcePoint" />
            <mxPoint x="750" y="1030" as="targetPoint" />
          </mxGeometry>
        </mxCell>
        <mxCell id="fNFYi70h5VaRsUZ3e4aZ-126" value="" style="endArrow=none;html=1;rounded=0;exitX=0;exitY=0.5;exitDx=0;exitDy=0;exitPerimeter=0;entryX=1;entryY=0.5;entryDx=0;entryDy=0;" edge="1" parent="1" source="fNFYi70h5VaRsUZ3e4aZ-28" target="fNFYi70h5VaRsUZ3e4aZ-86">
          <mxGeometry width="50" height="50" relative="1" as="geometry">
            <mxPoint x="700" y="1080" as="sourcePoint" />
            <mxPoint x="750" y="1030" as="targetPoint" />
          </mxGeometry>
        </mxCell>
        <mxCell id="fNFYi70h5VaRsUZ3e4aZ-127" value="" style="endArrow=none;html=1;rounded=0;exitX=0;exitY=0;exitDx=0;exitDy=0;entryX=1;entryY=0.5;entryDx=0;entryDy=0;" edge="1" parent="1" source="fNFYi70h5VaRsUZ3e4aZ-19" target="fNFYi70h5VaRsUZ3e4aZ-112">
          <mxGeometry width="50" height="50" relative="1" as="geometry">
            <mxPoint x="700" y="1390" as="sourcePoint" />
            <mxPoint x="750" y="1340" as="targetPoint" />
          </mxGeometry>
        </mxCell>
        <mxCell id="fNFYi70h5VaRsUZ3e4aZ-128" value="" style="endArrow=none;html=1;rounded=0;exitX=0;exitY=0;exitDx=0;exitDy=0;entryX=1;entryY=0.5;entryDx=0;entryDy=0;" edge="1" parent="1" source="fNFYi70h5VaRsUZ3e4aZ-85" target="fNFYi70h5VaRsUZ3e4aZ-113">
          <mxGeometry width="50" height="50" relative="1" as="geometry">
            <mxPoint x="700" y="1390" as="sourcePoint" />
            <mxPoint x="750" y="1340" as="targetPoint" />
          </mxGeometry>
        </mxCell>
        <mxCell id="fNFYi70h5VaRsUZ3e4aZ-129" value="" style="endArrow=none;html=1;rounded=0;exitX=1;exitY=0;exitDx=0;exitDy=0;entryX=0;entryY=0.5;entryDx=0;entryDy=0;" edge="1" parent="1" source="fNFYi70h5VaRsUZ3e4aZ-18" target="fNFYi70h5VaRsUZ3e4aZ-108">
          <mxGeometry width="50" height="50" relative="1" as="geometry">
            <mxPoint x="700" y="1390" as="sourcePoint" />
            <mxPoint x="750" y="1340" as="targetPoint" />
          </mxGeometry>
        </mxCell>
        <mxCell id="fNFYi70h5VaRsUZ3e4aZ-130" value="" style="endArrow=none;html=1;rounded=0;entryX=1;entryY=0;entryDx=0;entryDy=0;exitX=0;exitY=0.5;exitDx=0;exitDy=0;" edge="1" parent="1" source="fNFYi70h5VaRsUZ3e4aZ-106" target="fNFYi70h5VaRsUZ3e4aZ-86">
          <mxGeometry width="50" height="50" relative="1" as="geometry">
            <mxPoint x="700" y="1390" as="sourcePoint" />
            <mxPoint x="750" y="1340" as="targetPoint" />
          </mxGeometry>
        </mxCell>
        <mxCell id="fNFYi70h5VaRsUZ3e4aZ-131" value="" style="shape=mxgraph.cisco.computers_and_peripherals.pc;html=1;pointerEvents=1;dashed=0;fillColor=#036897;strokeColor=#ffffff;strokeWidth=2;verticalLabelPosition=bottom;verticalAlign=top;align=center;outlineConnect=0;" vertex="1" parent="1">
          <mxGeometry x="360" y="1450" width="58" height="50" as="geometry" />
        </mxCell>
        <mxCell id="fNFYi70h5VaRsUZ3e4aZ-132" value="" style="shape=mxgraph.cisco.computers_and_peripherals.pc;html=1;pointerEvents=1;dashed=0;fillColor=#036897;strokeColor=#ffffff;strokeWidth=2;verticalLabelPosition=bottom;verticalAlign=top;align=center;outlineConnect=0;" vertex="1" parent="1">
          <mxGeometry x="490" y="1520" width="58" height="50" as="geometry" />
        </mxCell>
        <mxCell id="fNFYi70h5VaRsUZ3e4aZ-133" value="" style="shape=mxgraph.cisco.computers_and_peripherals.pc;html=1;pointerEvents=1;dashed=0;fillColor=#036897;strokeColor=#ffffff;strokeWidth=2;verticalLabelPosition=bottom;verticalAlign=top;align=center;outlineConnect=0;" vertex="1" parent="1">
          <mxGeometry x="620" y="1450" width="58" height="50" as="geometry" />
        </mxCell>
        <mxCell id="fNFYi70h5VaRsUZ3e4aZ-134" value="" style="shape=mxgraph.cisco.computers_and_peripherals.pc;html=1;pointerEvents=1;dashed=0;fillColor=#036897;strokeColor=#ffffff;strokeWidth=2;verticalLabelPosition=bottom;verticalAlign=top;align=center;outlineConnect=0;" vertex="1" parent="1">
          <mxGeometry x="1066" y="1460" width="58" height="50" as="geometry" />
        </mxCell>
        <mxCell id="fNFYi70h5VaRsUZ3e4aZ-135" value="" style="shape=mxgraph.cisco.computers_and_peripherals.pc;html=1;pointerEvents=1;dashed=0;fillColor=#036897;strokeColor=#ffffff;strokeWidth=2;verticalLabelPosition=bottom;verticalAlign=top;align=center;outlineConnect=0;" vertex="1" parent="1">
          <mxGeometry x="1196" y="1530" width="58" height="50" as="geometry" />
        </mxCell>
        <mxCell id="fNFYi70h5VaRsUZ3e4aZ-136" value="" style="shape=mxgraph.cisco.computers_and_peripherals.pc;html=1;pointerEvents=1;dashed=0;fillColor=#036897;strokeColor=#ffffff;strokeWidth=2;verticalLabelPosition=bottom;verticalAlign=top;align=center;outlineConnect=0;" vertex="1" parent="1">
          <mxGeometry x="1326" y="1460" width="58" height="50" as="geometry" />
        </mxCell>
        <mxCell id="fNFYi70h5VaRsUZ3e4aZ-137" value="" style="shape=mxgraph.cisco.computers_and_peripherals.pc;html=1;pointerEvents=1;dashed=0;fillColor=#036897;strokeColor=#ffffff;strokeWidth=2;verticalLabelPosition=bottom;verticalAlign=top;align=center;outlineConnect=0;" vertex="1" parent="1">
          <mxGeometry x="1212" y="1030" width="58" height="50" as="geometry" />
        </mxCell>
        <mxCell id="fNFYi70h5VaRsUZ3e4aZ-138" value="" style="shape=mxgraph.cisco.computers_and_peripherals.pc;html=1;pointerEvents=1;dashed=0;fillColor=#036897;strokeColor=#ffffff;strokeWidth=2;verticalLabelPosition=bottom;verticalAlign=top;align=center;outlineConnect=0;" vertex="1" parent="1">
          <mxGeometry x="1320" y="980" width="58" height="50" as="geometry" />
        </mxCell>
        <mxCell id="fNFYi70h5VaRsUZ3e4aZ-139" value="" style="shape=mxgraph.cisco.computers_and_peripherals.pc;html=1;pointerEvents=1;dashed=0;fillColor=#036897;strokeColor=#ffffff;strokeWidth=2;verticalLabelPosition=bottom;verticalAlign=top;align=center;outlineConnect=0;" vertex="1" parent="1">
          <mxGeometry x="1210" y="1140" width="58" height="50" as="geometry" />
        </mxCell>
        <mxCell id="fNFYi70h5VaRsUZ3e4aZ-140" value="" style="shape=mxgraph.cisco.computers_and_peripherals.pc;html=1;pointerEvents=1;dashed=0;fillColor=#036897;strokeColor=#ffffff;strokeWidth=2;verticalLabelPosition=bottom;verticalAlign=top;align=center;outlineConnect=0;" vertex="1" parent="1">
          <mxGeometry x="486" y="1100" width="58" height="50" as="geometry" />
        </mxCell>
        <mxCell id="fNFYi70h5VaRsUZ3e4aZ-141" value="" style="shape=mxgraph.cisco.computers_and_peripherals.pc;html=1;pointerEvents=1;dashed=0;fillColor=#036897;strokeColor=#ffffff;strokeWidth=2;verticalLabelPosition=bottom;verticalAlign=top;align=center;outlineConnect=0;" vertex="1" parent="1">
          <mxGeometry x="340" y="1230" width="58" height="50" as="geometry" />
        </mxCell>
        <mxCell id="fNFYi70h5VaRsUZ3e4aZ-142" value="" style="shape=mxgraph.cisco.computers_and_peripherals.pc;html=1;pointerEvents=1;dashed=0;fillColor=#036897;strokeColor=#ffffff;strokeWidth=2;verticalLabelPosition=bottom;verticalAlign=top;align=center;outlineConnect=0;" vertex="1" parent="1">
          <mxGeometry x="380" y="1020" width="58" height="50" as="geometry" />
        </mxCell>
        <mxCell id="fNFYi70h5VaRsUZ3e4aZ-143" value="" style="endArrow=none;html=1;rounded=0;entryX=0.5;entryY=1;entryDx=0;entryDy=0;entryPerimeter=0;exitX=0.5;exitY=0;exitDx=0;exitDy=0;" edge="1" parent="1" source="fNFYi70h5VaRsUZ3e4aZ-85" target="fNFYi70h5VaRsUZ3e4aZ-142">
          <mxGeometry width="50" height="50" relative="1" as="geometry">
            <mxPoint x="810" y="1390" as="sourcePoint" />
            <mxPoint x="860" y="1340" as="targetPoint" />
          </mxGeometry>
        </mxCell>
        <mxCell id="fNFYi70h5VaRsUZ3e4aZ-144" value="" style="endArrow=none;html=1;rounded=0;entryX=0.16;entryY=0.5;entryDx=0;entryDy=0;entryPerimeter=0;exitX=1;exitY=0.5;exitDx=0;exitDy=0;" edge="1" parent="1" source="fNFYi70h5VaRsUZ3e4aZ-85" target="fNFYi70h5VaRsUZ3e4aZ-140">
          <mxGeometry width="50" height="50" relative="1" as="geometry">
            <mxPoint x="830" y="1280" as="sourcePoint" />
            <mxPoint x="860" y="1340" as="targetPoint" />
          </mxGeometry>
        </mxCell>
        <mxCell id="fNFYi70h5VaRsUZ3e4aZ-145" value="" style="endArrow=none;html=1;rounded=0;exitX=0.5;exitY=1;exitDx=0;exitDy=0;entryX=0.5;entryY=0;entryDx=0;entryDy=0;entryPerimeter=0;" edge="1" parent="1" source="fNFYi70h5VaRsUZ3e4aZ-85" target="fNFYi70h5VaRsUZ3e4aZ-141">
          <mxGeometry width="50" height="50" relative="1" as="geometry">
            <mxPoint x="810" y="1390" as="sourcePoint" />
            <mxPoint x="860" y="1340" as="targetPoint" />
          </mxGeometry>
        </mxCell>
        <mxCell id="fNFYi70h5VaRsUZ3e4aZ-146" value="" style="endArrow=none;html=1;rounded=0;exitX=0.5;exitY=0;exitDx=0;exitDy=0;exitPerimeter=0;entryX=1;entryY=0.5;entryDx=0;entryDy=0;" edge="1" parent="1" source="fNFYi70h5VaRsUZ3e4aZ-133" target="fNFYi70h5VaRsUZ3e4aZ-19">
          <mxGeometry width="50" height="50" relative="1" as="geometry">
            <mxPoint x="810" y="1390" as="sourcePoint" />
            <mxPoint x="860" y="1340" as="targetPoint" />
          </mxGeometry>
        </mxCell>
        <mxCell id="fNFYi70h5VaRsUZ3e4aZ-147" value="" style="endArrow=none;html=1;rounded=0;exitX=0.5;exitY=0;exitDx=0;exitDy=0;exitPerimeter=0;entryX=0.5;entryY=1;entryDx=0;entryDy=0;" edge="1" parent="1" source="fNFYi70h5VaRsUZ3e4aZ-132" target="fNFYi70h5VaRsUZ3e4aZ-19">
          <mxGeometry width="50" height="50" relative="1" as="geometry">
            <mxPoint x="810" y="1390" as="sourcePoint" />
            <mxPoint x="860" y="1340" as="targetPoint" />
          </mxGeometry>
        </mxCell>
        <mxCell id="fNFYi70h5VaRsUZ3e4aZ-148" value="" style="endArrow=none;html=1;rounded=0;exitX=0.5;exitY=0;exitDx=0;exitDy=0;exitPerimeter=0;entryX=0;entryY=0.5;entryDx=0;entryDy=0;" edge="1" parent="1" source="fNFYi70h5VaRsUZ3e4aZ-131" target="fNFYi70h5VaRsUZ3e4aZ-19">
          <mxGeometry width="50" height="50" relative="1" as="geometry">
            <mxPoint x="810" y="1390" as="sourcePoint" />
            <mxPoint x="860" y="1340" as="targetPoint" />
          </mxGeometry>
        </mxCell>
        <mxCell id="fNFYi70h5VaRsUZ3e4aZ-149" value="" style="endArrow=none;html=1;rounded=0;exitX=0.5;exitY=0;exitDx=0;exitDy=0;exitPerimeter=0;entryX=0;entryY=1;entryDx=0;entryDy=0;" edge="1" parent="1" source="fNFYi70h5VaRsUZ3e4aZ-134" target="fNFYi70h5VaRsUZ3e4aZ-18">
          <mxGeometry width="50" height="50" relative="1" as="geometry">
            <mxPoint x="810" y="1390" as="sourcePoint" />
            <mxPoint x="1200" y="1440" as="targetPoint" />
          </mxGeometry>
        </mxCell>
        <mxCell id="fNFYi70h5VaRsUZ3e4aZ-150" value="" style="endArrow=none;html=1;rounded=0;entryX=0.5;entryY=0;entryDx=0;entryDy=0;entryPerimeter=0;exitX=0.5;exitY=1;exitDx=0;exitDy=0;" edge="1" parent="1" source="fNFYi70h5VaRsUZ3e4aZ-18" target="fNFYi70h5VaRsUZ3e4aZ-135">
          <mxGeometry width="50" height="50" relative="1" as="geometry">
            <mxPoint x="810" y="1390" as="sourcePoint" />
            <mxPoint x="860" y="1340" as="targetPoint" />
          </mxGeometry>
        </mxCell>
        <mxCell id="fNFYi70h5VaRsUZ3e4aZ-151" value="" style="endArrow=none;html=1;rounded=0;exitX=0.5;exitY=0;exitDx=0;exitDy=0;exitPerimeter=0;entryX=1;entryY=1;entryDx=0;entryDy=0;" edge="1" parent="1" source="fNFYi70h5VaRsUZ3e4aZ-136" target="fNFYi70h5VaRsUZ3e4aZ-18">
          <mxGeometry width="50" height="50" relative="1" as="geometry">
            <mxPoint x="810" y="1390" as="sourcePoint" />
            <mxPoint x="860" y="1340" as="targetPoint" />
          </mxGeometry>
        </mxCell>
        <mxCell id="fNFYi70h5VaRsUZ3e4aZ-152" value="" style="endArrow=none;html=1;rounded=0;entryX=0;entryY=0.5;entryDx=0;entryDy=0;exitX=0.83;exitY=0.5;exitDx=0;exitDy=0;exitPerimeter=0;" edge="1" parent="1" source="fNFYi70h5VaRsUZ3e4aZ-139" target="fNFYi70h5VaRsUZ3e4aZ-86">
          <mxGeometry width="50" height="50" relative="1" as="geometry">
            <mxPoint x="810" y="1390" as="sourcePoint" />
            <mxPoint x="860" y="1340" as="targetPoint" />
          </mxGeometry>
        </mxCell>
        <mxCell id="fNFYi70h5VaRsUZ3e4aZ-153" value="" style="endArrow=none;html=1;rounded=0;entryX=0.83;entryY=0.5;entryDx=0;entryDy=0;entryPerimeter=0;exitX=0;exitY=0.25;exitDx=0;exitDy=0;" edge="1" parent="1" source="fNFYi70h5VaRsUZ3e4aZ-86" target="fNFYi70h5VaRsUZ3e4aZ-137">
          <mxGeometry width="50" height="50" relative="1" as="geometry">
            <mxPoint x="810" y="1390" as="sourcePoint" />
            <mxPoint x="860" y="1340" as="targetPoint" />
          </mxGeometry>
        </mxCell>
        <mxCell id="fNFYi70h5VaRsUZ3e4aZ-154" value="" style="endArrow=none;html=1;rounded=0;entryX=0.25;entryY=0;entryDx=0;entryDy=0;exitX=0.5;exitY=1;exitDx=0;exitDy=0;exitPerimeter=0;" edge="1" parent="1" source="fNFYi70h5VaRsUZ3e4aZ-138" target="fNFYi70h5VaRsUZ3e4aZ-86">
          <mxGeometry width="50" height="50" relative="1" as="geometry">
            <mxPoint x="810" y="1390" as="sourcePoint" />
            <mxPoint x="860" y="1340" as="targetPoint" />
          </mxGeometry>
        </mxCell>
        <mxCell id="fNFYi70h5VaRsUZ3e4aZ-155" value="" style="shape=mxgraph.cisco.misc.mcu;html=1;pointerEvents=1;dashed=0;fillColor=#036897;strokeColor=#ffffff;strokeWidth=2;verticalLabelPosition=bottom;verticalAlign=top;align=center;outlineConnect=0;" vertex="1" parent="1">
          <mxGeometry x="1300" y="1606" width="46" height="44" as="geometry" />
        </mxCell>
        <mxCell id="fNFYi70h5VaRsUZ3e4aZ-156" value="" style="shape=mxgraph.cisco.misc.mcu;html=1;pointerEvents=1;dashed=0;fillColor=#036897;strokeColor=#ffffff;strokeWidth=2;verticalLabelPosition=bottom;verticalAlign=top;align=center;outlineConnect=0;" vertex="1" parent="1">
          <mxGeometry x="392" y="1600" width="46" height="44" as="geometry" />
        </mxCell>
        <mxCell id="fNFYi70h5VaRsUZ3e4aZ-157" value="" style="fontColor=#0066CC;verticalAlign=top;verticalLabelPosition=bottom;labelPosition=center;align=center;html=1;outlineConnect=0;fillColor=#CCCCCC;strokeColor=#6881B3;gradientColor=none;gradientDirection=north;strokeWidth=2;shape=mxgraph.networks.security_camera;" vertex="1" parent="1">
          <mxGeometry x="1400" y="1720" width="50" height="45" as="geometry" />
        </mxCell>
        <mxCell id="fNFYi70h5VaRsUZ3e4aZ-158" value="" style="fontColor=#0066CC;verticalAlign=top;verticalLabelPosition=bottom;labelPosition=center;align=center;html=1;outlineConnect=0;fillColor=#CCCCCC;strokeColor=#6881B3;gradientColor=none;gradientDirection=north;strokeWidth=2;shape=mxgraph.networks.security_camera;" vertex="1" parent="1">
          <mxGeometry x="330" y="1720" width="50" height="45" as="geometry" />
        </mxCell>
        <mxCell id="fNFYi70h5VaRsUZ3e4aZ-160" value="" style="endArrow=none;html=1;rounded=0;exitX=0.5;exitY=1;exitDx=0;exitDy=0;exitPerimeter=0;entryX=0.3;entryY=0;entryDx=0;entryDy=0;entryPerimeter=0;" edge="1" parent="1" source="fNFYi70h5VaRsUZ3e4aZ-156" target="fNFYi70h5VaRsUZ3e4aZ-158">
          <mxGeometry width="50" height="50" relative="1" as="geometry">
            <mxPoint x="780" y="1730" as="sourcePoint" />
            <mxPoint x="830" y="1680" as="targetPoint" />
          </mxGeometry>
        </mxCell>
        <mxCell id="fNFYi70h5VaRsUZ3e4aZ-161" value="" style="endArrow=none;html=1;rounded=0;entryX=0.5;entryY=1;entryDx=0;entryDy=0;entryPerimeter=0;exitX=0.3;exitY=0;exitDx=0;exitDy=0;exitPerimeter=0;" edge="1" parent="1" source="fNFYi70h5VaRsUZ3e4aZ-157" target="fNFYi70h5VaRsUZ3e4aZ-155">
          <mxGeometry width="50" height="50" relative="1" as="geometry">
            <mxPoint x="780" y="1730" as="sourcePoint" />
            <mxPoint x="830" y="1680" as="targetPoint" />
          </mxGeometry>
        </mxCell>
        <mxCell id="fNFYi70h5VaRsUZ3e4aZ-162" value="" style="endArrow=none;html=1;rounded=0;exitX=0.85;exitY=0;exitDx=0;exitDy=0;exitPerimeter=0;entryX=0.5;entryY=1;entryDx=0;entryDy=0;entryPerimeter=0;" edge="1" parent="1" source="fNFYi70h5VaRsUZ3e4aZ-156" target="fNFYi70h5VaRsUZ3e4aZ-132">
          <mxGeometry width="50" height="50" relative="1" as="geometry">
            <mxPoint x="780" y="1610" as="sourcePoint" />
            <mxPoint x="830" y="1560" as="targetPoint" />
          </mxGeometry>
        </mxCell>
        <mxCell id="fNFYi70h5VaRsUZ3e4aZ-163" value="" style="endArrow=none;html=1;rounded=0;entryX=0.5;entryY=1;entryDx=0;entryDy=0;entryPerimeter=0;exitX=0.135;exitY=0.08;exitDx=0;exitDy=0;exitPerimeter=0;" edge="1" parent="1" source="fNFYi70h5VaRsUZ3e4aZ-155" target="fNFYi70h5VaRsUZ3e4aZ-135">
          <mxGeometry width="50" height="50" relative="1" as="geometry">
            <mxPoint x="780" y="1610" as="sourcePoint" />
            <mxPoint x="830" y="1560" as="targetPoint" />
          </mxGeometry>
        </mxCell>
        <mxCell id="fNFYi70h5VaRsUZ3e4aZ-164" value="" style="shape=mxgraph.cisco.computers_and_peripherals.speaker;html=1;pointerEvents=1;dashed=0;fillColor=#036897;strokeColor=#ffffff;strokeWidth=2;verticalLabelPosition=bottom;verticalAlign=top;align=center;outlineConnect=0;" vertex="1" parent="1">
          <mxGeometry x="1247" y="1715.5" width="53" height="54" as="geometry" />
        </mxCell>
        <mxCell id="fNFYi70h5VaRsUZ3e4aZ-165" value="" style="shape=mxgraph.cisco.computers_and_peripherals.speaker;html=1;pointerEvents=1;dashed=0;fillColor=#036897;strokeColor=#ffffff;strokeWidth=2;verticalLabelPosition=bottom;verticalAlign=top;align=center;outlineConnect=0;" vertex="1" parent="1">
          <mxGeometry x="470" y="1715.5" width="53" height="54" as="geometry" />
        </mxCell>
        <mxCell id="fNFYi70h5VaRsUZ3e4aZ-166" value="" style="endArrow=none;html=1;rounded=0;entryX=0.5;entryY=1;entryDx=0;entryDy=0;entryPerimeter=0;exitX=0.75;exitY=0;exitDx=0;exitDy=0;exitPerimeter=0;" edge="1" parent="1" source="fNFYi70h5VaRsUZ3e4aZ-164" target="fNFYi70h5VaRsUZ3e4aZ-155">
          <mxGeometry width="50" height="50" relative="1" as="geometry">
            <mxPoint x="1350" y="1750" as="sourcePoint" />
            <mxPoint x="1280" y="1740" as="targetPoint" />
          </mxGeometry>
        </mxCell>
        <mxCell id="fNFYi70h5VaRsUZ3e4aZ-167" value="" style="endArrow=none;html=1;rounded=0;exitX=0.5;exitY=0.1;exitDx=0;exitDy=0;exitPerimeter=0;entryX=0.5;entryY=1;entryDx=0;entryDy=0;entryPerimeter=0;" edge="1" parent="1" source="fNFYi70h5VaRsUZ3e4aZ-165" target="fNFYi70h5VaRsUZ3e4aZ-156">
          <mxGeometry width="50" height="50" relative="1" as="geometry">
            <mxPoint x="1230" y="1790" as="sourcePoint" />
            <mxPoint x="1280" y="1740" as="targetPoint" />
          </mxGeometry>
        </mxCell>
        <mxCell id="fNFYi70h5VaRsUZ3e4aZ-168" value="" style="shape=mxgraph.signs.tech.telephone_3;html=1;pointerEvents=1;fillColor=#000000;strokeColor=none;verticalLabelPosition=bottom;verticalAlign=top;align=center;" vertex="1" parent="1">
          <mxGeometry x="560" y="1450" width="34" height="41" as="geometry" />
        </mxCell>
        <mxCell id="fNFYi70h5VaRsUZ3e4aZ-169" value="" style="shape=mxgraph.signs.tech.telephone_3;html=1;pointerEvents=1;fillColor=#000000;strokeColor=none;verticalLabelPosition=bottom;verticalAlign=top;align=center;" vertex="1" parent="1">
          <mxGeometry x="1490" y="984.5" width="34" height="41" as="geometry" />
        </mxCell>
        <mxCell id="fNFYi70h5VaRsUZ3e4aZ-170" value="" style="shape=mxgraph.signs.tech.telephone_3;html=1;pointerEvents=1;fillColor=#000000;strokeColor=none;verticalLabelPosition=bottom;verticalAlign=top;align=center;" vertex="1" parent="1">
          <mxGeometry x="1150" y="1318" width="34" height="41" as="geometry" />
        </mxCell>
        <mxCell id="fNFYi70h5VaRsUZ3e4aZ-171" value="" style="shape=mxgraph.signs.tech.telephone_3;html=1;pointerEvents=1;fillColor=#000000;strokeColor=none;verticalLabelPosition=bottom;verticalAlign=top;align=center;" vertex="1" parent="1">
          <mxGeometry x="210" y="1200" width="34" height="41" as="geometry" />
        </mxCell>
        <mxCell id="fNFYi70h5VaRsUZ3e4aZ-172" value="" style="image;html=1;image=img/lib/clip_art/computers/Printer_128x128.png" vertex="1" parent="1">
          <mxGeometry x="1430" y="1435.5" width="60" height="70" as="geometry" />
        </mxCell>
        <mxCell id="fNFYi70h5VaRsUZ3e4aZ-173" value="" style="endArrow=none;html=1;rounded=0;entryX=0;entryY=0.25;entryDx=0;entryDy=0;exitX=1;exitY=0.5;exitDx=0;exitDy=0;" edge="1" parent="1" source="fNFYi70h5VaRsUZ3e4aZ-18" target="fNFYi70h5VaRsUZ3e4aZ-172">
          <mxGeometry width="50" height="50" relative="1" as="geometry">
            <mxPoint x="490" y="1310" as="sourcePoint" />
            <mxPoint x="540" y="1260" as="targetPoint" />
          </mxGeometry>
        </mxCell>
        <mxCell id="fNFYi70h5VaRsUZ3e4aZ-174" value="" style="endArrow=none;html=1;rounded=0;exitX=1.099;exitY=0.033;exitDx=0;exitDy=0;exitPerimeter=0;entryX=0;entryY=0.75;entryDx=0;entryDy=0;" edge="1" parent="1" source="fNFYi70h5VaRsUZ3e4aZ-171" target="fNFYi70h5VaRsUZ3e4aZ-85">
          <mxGeometry width="50" height="50" relative="1" as="geometry">
            <mxPoint x="490" y="1310" as="sourcePoint" />
            <mxPoint x="540" y="1260" as="targetPoint" />
          </mxGeometry>
        </mxCell>
        <mxCell id="fNFYi70h5VaRsUZ3e4aZ-175" value="" style="endArrow=none;html=1;rounded=0;exitX=0.1;exitY=0.05;exitDx=0;exitDy=0;exitPerimeter=0;entryX=1;entryY=1;entryDx=0;entryDy=0;" edge="1" parent="1" source="fNFYi70h5VaRsUZ3e4aZ-168" target="fNFYi70h5VaRsUZ3e4aZ-19">
          <mxGeometry width="50" height="50" relative="1" as="geometry">
            <mxPoint x="490" y="1310" as="sourcePoint" />
            <mxPoint x="540" y="1260" as="targetPoint" />
          </mxGeometry>
        </mxCell>
        <mxCell id="fNFYi70h5VaRsUZ3e4aZ-176" value="" style="endArrow=none;html=1;rounded=0;entryX=0.99;entryY=0.82;entryDx=0;entryDy=0;entryPerimeter=0;exitX=0;exitY=0.25;exitDx=0;exitDy=0;" edge="1" parent="1" source="fNFYi70h5VaRsUZ3e4aZ-18" target="fNFYi70h5VaRsUZ3e4aZ-170">
          <mxGeometry width="50" height="50" relative="1" as="geometry">
            <mxPoint x="490" y="1310" as="sourcePoint" />
            <mxPoint x="540" y="1260" as="targetPoint" />
          </mxGeometry>
        </mxCell>
        <mxCell id="fNFYi70h5VaRsUZ3e4aZ-177" value="" style="endArrow=none;html=1;rounded=0;entryX=0.5;entryY=0.94;entryDx=0;entryDy=0;entryPerimeter=0;exitX=1;exitY=0;exitDx=0;exitDy=0;" edge="1" parent="1" source="fNFYi70h5VaRsUZ3e4aZ-86" target="fNFYi70h5VaRsUZ3e4aZ-169">
          <mxGeometry width="50" height="50" relative="1" as="geometry">
            <mxPoint x="490" y="1310" as="sourcePoint" />
            <mxPoint x="540" y="1260" as="targetPoint" />
          </mxGeometry>
        </mxCell>
        <mxCell id="fNFYi70h5VaRsUZ3e4aZ-178" value="" style="fontColor=#0066CC;verticalAlign=top;verticalLabelPosition=bottom;labelPosition=center;align=center;html=1;outlineConnect=0;fillColor=#CCCCCC;strokeColor=#6881B3;gradientColor=none;gradientDirection=north;strokeWidth=2;shape=mxgraph.networks.security_camera;" vertex="1" parent="1">
          <mxGeometry x="1562.5" y="1200" width="50" height="45" as="geometry" />
        </mxCell>
        <mxCell id="fNFYi70h5VaRsUZ3e4aZ-179" value="" style="fontColor=#0066CC;verticalAlign=top;verticalLabelPosition=bottom;labelPosition=center;align=center;html=1;outlineConnect=0;fillColor=#CCCCCC;strokeColor=#6881B3;gradientColor=none;gradientDirection=north;strokeWidth=2;shape=mxgraph.networks.security_camera;" vertex="1" parent="1">
          <mxGeometry x="40" y="1070" width="50" height="45" as="geometry" />
        </mxCell>
        <mxCell id="fNFYi70h5VaRsUZ3e4aZ-181" value="" style="endArrow=none;dashed=1;html=1;dashPattern=1 3;strokeWidth=2;rounded=0;entryX=0.9;entryY=0.93;entryDx=0;entryDy=0;entryPerimeter=0;exitX=0;exitY=0.5;exitDx=0;exitDy=0;exitPerimeter=0;" edge="1" parent="1" source="fNFYi70h5VaRsUZ3e4aZ-104" target="fNFYi70h5VaRsUZ3e4aZ-179">
          <mxGeometry width="50" height="50" relative="1" as="geometry">
            <mxPoint x="490" y="1310" as="sourcePoint" />
            <mxPoint x="540" y="1260" as="targetPoint" />
          </mxGeometry>
        </mxCell>
        <mxCell id="fNFYi70h5VaRsUZ3e4aZ-182" value="" style="endArrow=none;dashed=1;html=1;dashPattern=1 3;strokeWidth=2;rounded=0;exitX=0.3;exitY=0;exitDx=0;exitDy=0;exitPerimeter=0;entryX=0.5;entryY=0.985;entryDx=0;entryDy=0;entryPerimeter=0;" edge="1" parent="1" source="fNFYi70h5VaRsUZ3e4aZ-178" target="fNFYi70h5VaRsUZ3e4aZ-28">
          <mxGeometry width="50" height="50" relative="1" as="geometry">
            <mxPoint x="490" y="1310" as="sourcePoint" />
            <mxPoint x="540" y="1260" as="targetPoint" />
          </mxGeometry>
        </mxCell>
        <mxCell id="fNFYi70h5VaRsUZ3e4aZ-183" value="SPT" style="text;html=1;align=center;verticalAlign=middle;whiteSpace=wrap;rounded=0;" vertex="1" parent="1">
          <mxGeometry x="-250" y="1266" width="60" height="30" as="geometry" />
        </mxCell>
        <mxCell id="fNFYi70h5VaRsUZ3e4aZ-184" value="VTP" style="text;html=1;align=center;verticalAlign=middle;whiteSpace=wrap;rounded=0;" vertex="1" parent="1">
          <mxGeometry x="930" y="1211" width="60" height="30" as="geometry" />
        </mxCell>
        <mxCell id="fNFYi70h5VaRsUZ3e4aZ-185" value="VTP" style="text;html=1;align=center;verticalAlign=middle;whiteSpace=wrap;rounded=0;" vertex="1" parent="1">
          <mxGeometry x="-250" y="1296" width="60" height="30" as="geometry" />
        </mxCell>
      </root>
    </mxGraphModel>
  </diagram>
</mxfile>
